<svg xmlns="http://www.w3.org/2000/svg" xmlns:xlink="http://www.w3.org/1999/xlink" viewBox="0 0 24 24">
  <defs>
    <filter color-interpolation-filters="auto" id="c">
      <feColorMatrix in="SourceGraphic" values="0 0 0 0 0.164706 0 0 0 0 0.568627 0 0 0 0 0.545098 0 0 0 1.000000 0"/>
    </filter>
    <path d="M10.1826281 1.8922049 11.369265.70556793c.5024499-.50244989 1.3149221-.50244989 1.8120268 0L23.5723831 11.091314c.5024499.5024499.5024499 1.3149221 0 1.8120268L13.1812918 23.2944321c-.5024499.5024499-1.3149221.5024499-1.8120268 0l-1.1866369-1.186637c-.50779514-.5077951-.49710471-1.3363029.0213808-1.8334076l6.44098-6.1363029H1.28285078C.57193764 14.1380846 0 13.566147 0 12.8552339v-1.7104678c0-.7109131.57193764-1.28285073 1.28285078-1.28285073H16.6449889l-6.44098-6.1363029C9.68017817 3.2285078 9.66948775 2.4 10.1826281 1.8922049Z" id="a"/>
  </defs>
  <g fill="none" fill-rule="evenodd">
    <mask id="b" fill="#fff">
      <use xlink:href="#a"/>
    </mask>
    <g filter="url(#c)" mask="url(#b)">
      <path fill="#CB0D89" d="M0 0h24v24H0z"/>
    </g>
  </g>
</svg>